# Blender v2.93.5 OBJ File: ''
# www.blender.org
mtllib cloud.mtl
o Cube_Cube.001
v -1.000000 -0.567836 5.353223
v -0.981219 2.535894 4.568305
v -1.000000 -0.128442 2.726071
v -1.181672 2.285773 3.077135
v 1.000000 0.094471 4.410673
v 0.771322 2.066107 4.442145
v 1.175053 0.244380 2.154408
v 1.457396 2.062201 2.825282
v -1.000000 -0.567836 3.726071
v -1.442534 1.341285 5.307385
v -1.305166 2.565057 3.726071
v -1.300537 0.871558 2.508087
v 0.175053 -0.128442 1.918257
v 0.000000 1.871558 2.726071
v 1.675823 0.871558 2.726071
v 1.000000 0.005184 3.698638
v 1.101000 2.164455 3.726071
v 1.000000 0.871558 4.726071
v 0.000000 -0.128442 5.353223
v 0.130854 2.240317 4.726071
v 0.000000 2.263724 3.726071
v 0.175053 -0.567836 2.918257
v 0.000000 0.871558 5.900564
v 1.675823 0.871558 3.726071
v -0.250010 1.014443 2.093769
v -2.141852 1.811712 3.899406
vt 0.302651 0.505719
vt 0.266449 0.750321
vt 0.177945 0.492252
vt 0.978317 0.942643
vt 0.771764 0.668473
vt 0.943646 0.645492
vt 0.700125 0.596169
vt 0.547817 0.770720
vt 0.607245 0.441444
vt 0.505394 0.315537
vt 0.386606 0.663176
vt 0.394202 0.358787
vt 0.858906 0.242063
vt 0.667996 0.279486
vt 0.544958 0.104647
vt 0.406453 0.958374
vt 0.477216 0.708275
vt 0.622344 0.922826
vt 0.747637 0.926141
vt 0.135036 0.942643
vt 0.015625 0.242063
vt 0.436244 0.005433
vt 0.157925 0.030068
vt 0.046216 0.450096
vt 0.131553 0.278401
vt 0.828191 0.556281
vt 0.889498 0.450096
vt 0.739797 0.325070
vt 0.100365 0.645492
vt 0.322034 0.718283
vn -0.7023 0.3158 -0.6380
vn 0.3026 0.5071 -0.8070
vn 0.7954 0.2800 0.5375
vn -0.1515 0.5617 0.8133
vn 0.3813 -0.9046 0.1906
vn 0.2583 0.9660 -0.0112
vn 0.0884 0.9805 0.1754
vn 0.0895 0.9930 -0.0773
vn 0.2129 0.9096 -0.3567
vn 0.0000 -1.0000 0.0000
vn -0.2665 -0.8824 -0.3877
vn 0.3999 -0.8391 -0.3687
vn 0.2064 -0.4698 0.8583
vn 0.6915 -0.2717 0.6694
vn 0.7293 0.2872 0.6210
vn 0.7849 -0.6147 0.0771
vn 0.7886 -0.6149 -0.0059
vn 0.9836 0.1804 0.0000
vn -0.1023 0.7135 -0.6932
vn -0.5645 -0.0839 -0.8212
vn -0.3839 0.3723 -0.8450
vn -0.9400 -0.3124 -0.1373
vn -0.9016 -0.4326 0.0000
vn -0.6474 0.5659 0.5106
vn -0.6577 0.6384 -0.3999
vn 0.0555 0.0930 -0.9941
vn 0.8249 0.3668 0.4302
vn 0.0639 0.6463 0.7604
vn 0.4962 -0.8615 0.1080
vn 0.2246 0.9730 -0.0527
vn 0.2579 0.9661 -0.0111
vn -0.0965 0.9266 -0.3634
vn 0.2105 0.9119 -0.3524
vn 0.3949 -0.8987 0.1906
vn 0.6040 -0.7951 -0.0547
vn -0.3989 -0.0705 0.9143
vn 0.7176 -0.3344 0.6110
vn 0.4587 0.5530 0.6955
vn 0.8079 -0.2216 0.5460
vn 0.7815 -0.6240 0.0000
vn 0.8714 0.3874 0.3008
vn 0.3186 0.2585 -0.9119
vn -0.3163 -0.2918 -0.9027
vn -0.0280 0.5987 -0.8005
vn -0.8780 -0.4025 -0.2590
vn -0.9025 -0.2000 0.3814
vn -0.6151 0.7435 0.2623
usemtl Material.001
s off
f 26/1/1 4/2/1 12/3/1
f 14/4/2 15/5/2 25/6/2
f 24/7/3 6/8/3 18/9/3
f 23/10/4 2/11/4 10/12/4
f 22/13/5 5/14/5 19/15/5
f 21/16/6 2/11/6 20/17/6
f 21/16/7 6/8/7 17/18/7
f 8/19/8 21/16/8 17/18/8
f 4/2/9 21/16/9 14/20/9
f 22/21/10 1/22/10 9/23/10
f 13/24/11 9/23/11 3/25/11
f 7/26/12 22/13/12 13/27/12
f 23/10/13 1/22/13 19/15/13
f 18/9/14 19/15/14 5/14/14
f 6/8/15 23/10/15 18/9/15
f 24/7/16 5/14/16 16/28/16
f 7/26/17 24/7/17 16/28/17
f 8/19/18 24/7/18 15/5/18
f 13/27/19 15/5/19 7/26/19
f 3/25/20 25/29/20 13/24/20
f 4/2/21 25/29/21 12/3/21
f 9/23/22 12/3/22 3/25/22
f 1/22/23 26/1/23 9/23/23
f 2/11/24 26/1/24 10/12/24
f 26/1/25 11/30/25 4/2/25
f 14/4/26 8/19/26 15/5/26
f 24/7/27 17/18/27 6/8/27
f 23/10/28 20/17/28 2/11/28
f 22/13/29 16/28/29 5/14/29
f 21/16/30 11/30/30 2/11/30
f 21/16/31 20/17/31 6/8/31
f 8/19/32 14/4/32 21/16/32
f 4/2/33 11/30/33 21/16/33
f 22/13/34 19/15/34 1/22/34
f 13/24/11 22/21/11 9/23/11
f 7/26/35 16/28/35 22/13/35
f 23/10/36 10/12/36 1/22/36
f 18/9/37 23/10/37 19/15/37
f 6/8/38 20/17/38 23/10/38
f 24/7/39 18/9/39 5/14/39
f 7/26/40 15/5/40 24/7/40
f 8/19/41 17/18/41 24/7/41
f 13/27/42 25/6/42 15/5/42
f 3/25/43 12/3/43 25/29/43
f 4/2/44 14/20/44 25/29/44
f 9/23/45 26/1/45 12/3/45
f 1/22/46 10/12/46 26/1/46
f 2/11/47 11/30/47 26/1/47
o Cube.001_Cube.002
v -3.019550 -0.490548 3.313619
v -3.195990 2.535894 2.351453
v -3.368380 0.218348 0.084995
v -4.310965 2.796850 0.503491
v -1.214772 0.094471 2.193822
v -1.443449 2.066107 2.225294
v -1.039718 0.244380 -0.062443
v -0.404921 2.342892 0.533542
v -4.471551 -0.567836 1.509220
v -3.775739 1.612780 3.090534
v -3.519938 2.565057 1.509220
v -4.583438 1.729425 -0.489781
v -2.039718 -0.128442 -0.298595
v -2.214772 1.871558 0.509220
v -0.538949 0.871558 0.509220
v -1.214772 0.005184 1.481787
v -0.761317 2.445145 1.434331
v -1.214772 0.871558 2.509220
v -1.351864 -0.322649 3.313619
v -2.083917 2.240317 2.509220
v -1.862317 2.544414 1.434331
v -1.176811 -0.762043 0.878653
v -2.214772 0.871558 3.683713
v -0.538949 0.871558 1.509220
v -2.618390 1.361233 -0.547307
v -5.938831 2.594284 1.325761
v -5.579586 2.161854 0.417990
v -5.800948 1.013224 1.417490
v -4.492183 0.580794 0.509719
v -4.099314 -0.529192 2.411419
v -5.646322 0.222694 1.463355
v -4.479190 1.051868 2.319690
v -6.026198 1.803754 1.371626
v -5.732054 0.637281 1.891523
vt 0.431710 0.426053
vt 0.389043 0.568129
vt 0.324164 0.449626
vt 0.388148 0.417823
vt 0.222289 0.807465
vt 0.041873 0.665226
vt 0.220186 0.579472
vt 0.872970 0.653920
vt 0.728193 0.793467
vt 0.788051 0.574493
vt 0.698146 0.444774
vt 0.540971 0.632390
vt 0.574658 0.406074
vt 0.929728 0.400730
vt 0.832953 0.463898
vt 0.782157 0.395543
vt 0.593483 0.976081
vt 0.648358 0.733150
vt 0.834697 0.901786
vt 0.952472 0.866545
vt 0.718484 0.211245
vt 0.617915 0.042344
vt 0.369332 0.021771
vt 0.126972 0.423286
vt 0.218581 0.291938
vt 0.082771 0.550866
vt 0.026635 0.400730
vt 0.887142 0.468743
vt 0.985864 0.550866
vt 0.944966 0.665226
vt 0.330369 0.247708
vt 0.448995 0.217243
vt 0.428106 0.348268
vt 0.423417 0.266275
vt 0.415885 0.176646
vt 0.457726 0.633544
vt 0.049379 0.866545
vt 0.506840 0.262196
vn -0.3276 0.7344 -0.5944
vn 0.4374 0.7329 -0.5211
vn 0.7954 0.2800 0.5375
vn 0.0001 0.6250 0.7807
vn 0.9920 -0.0907 0.0877
vn 0.2039 0.9302 0.3052
vn 0.0785 0.8709 0.4851
vn 0.0895 0.9930 -0.0773
vn 0.3138 0.7070 -0.6338
vn -0.0401 -0.9964 0.0749
vn -0.3620 -0.6686 -0.6495
vn 0.3962 -0.6553 -0.6431
vn 0.0279 -0.2774 0.9603
vn 0.9935 -0.0429 0.1057
vn 0.7293 0.2872 0.6210
vn 0.7849 -0.6147 0.0771
vn 0.7886 -0.6149 -0.0059
vn 0.9959 -0.0907 0.0000
vn -0.1023 0.7135 -0.6932
vn -0.3330 -0.2797 -0.9005
vn 0.1026 0.6635 -0.7411
vn -0.4448 -0.6002 -0.6648
vn -0.9707 -0.2359 -0.0460
vn -0.2392 0.6940 0.6791
vn -0.0056 0.9735 0.2288
vn 0.0094 0.0157 -0.9998
vn 0.7178 0.1340 0.6832
vn 0.0639 0.6463 0.7604
vn 0.9985 0.0548 -0.0069
vn 0.0138 0.9995 0.0293
vn 0.3792 0.8669 0.3234
vn -0.2084 0.8270 -0.5221
vn 0.0216 0.9778 0.2084
vn 0.0985 -0.9781 0.1836
vn -0.1292 -0.9096 -0.3949
vn 0.9936 -0.0351 0.1072
vn -0.3692 -0.0342 0.9287
vn 0.7188 0.3297 0.6120
vn 0.4587 0.5530 0.6955
vn 0.8079 -0.2216 0.5460
vn 0.7815 -0.6240 0.0000
vn 0.9253 0.1474 0.3494
vn 0.4583 0.0297 -0.8883
vn -0.1063 -0.4270 -0.8980
vn 0.3480 0.7852 -0.5122
vn -0.4822 -0.4491 -0.7522
vn -0.6670 -0.1627 0.7271
vn 0.0097 0.9995 0.0309
vn -0.6908 -0.5051 -0.5174
vn -0.6042 -0.4536 -0.6551
vn -0.8852 -0.1035 -0.4535
vn -0.5801 -0.7247 0.3718
vn -0.4847 -0.0658 0.8722
vn -0.4360 0.2071 0.8758
usemtl Material.001
s off
f 52/31/48 30/32/48 38/33/48 53/34/48
f 40/35/49 41/36/49 51/37/49
f 50/38/50 32/39/50 44/40/50
f 49/41/51 28/42/51 36/43/51
f 48/44/52 31/45/52 45/46/52
f 47/47/53 28/42/53 46/48/53
f 47/47/54 32/39/54 43/49/54
f 34/50/55 47/47/55 43/49/55
f 30/32/56 47/47/56 40/35/56
f 48/44/57 27/51/57 56/52/57 35/53/57
f 39/54/58 35/53/58 29/55/58
f 33/56/59 48/57/59 39/54/59
f 49/41/60 27/51/60 45/46/60
f 44/40/61 45/46/61 31/45/61
f 32/39/62 49/41/62 44/40/62
f 50/38/63 31/45/63 42/58/63
f 33/59/64 50/38/64 42/58/64
f 34/50/65 50/38/65 41/60/65
f 39/54/66 41/36/66 33/56/66
f 29/55/67 51/37/67 39/54/67
f 30/32/68 51/37/68 38/33/68
f 35/53/69 55/61/69 38/33/69 29/55/69
f 60/62/70 59/63/70 54/64/70 57/65/70
f 28/42/71 52/31/71 36/43/71
f 52/31/72 37/66/72 30/32/72
f 40/35/73 34/67/73 41/36/73
f 50/38/74 43/49/74 32/39/74
f 49/41/75 46/48/75 28/42/75
f 48/44/76 42/58/76 31/45/76
f 47/47/77 37/66/77 28/42/77
f 47/47/78 46/48/78 32/39/78
f 34/50/79 40/35/79 47/47/79
f 30/32/80 37/66/80 47/47/80
f 48/44/81 45/46/81 27/51/81
f 39/54/82 48/57/82 35/53/82
f 33/59/83 42/58/83 48/44/83
f 49/41/84 36/43/84 27/51/84
f 44/40/85 49/41/85 45/46/85
f 32/39/86 46/48/86 49/41/86
f 50/38/87 44/40/87 31/45/87
f 33/59/88 41/60/88 50/38/88
f 34/50/89 43/49/89 50/38/89
f 39/54/90 51/37/90 41/36/90
f 29/55/91 38/33/91 51/37/91
f 30/32/92 40/35/92 51/37/92
f 35/53/93 57/65/93 54/64/93 55/61/93
f 27/51/94 36/43/94 52/31/94 58/68/94
f 28/42/95 37/66/95 52/31/95
f 55/61/96 53/34/96 38/33/96
f 55/61/97 54/64/97 53/34/97
f 54/64/98 59/63/98 52/31/98 53/34/98
f 56/52/99 60/62/99 57/65/99 35/53/99
f 27/51/100 58/68/100 60/62/100 56/52/100
f 58/68/101 52/31/101 59/63/101 60/62/101
o Cube.002_Cube.003
v 0.294769 -0.490548 2.982377
v -0.014469 2.535894 1.221990
v -0.186858 0.218348 -1.873736
v -0.275815 2.796850 -0.625972
v 2.393235 0.094471 1.558169
v 1.738072 2.066107 1.095831
v 3.491969 0.244380 -1.191906
v 2.776600 2.342892 -0.595921
v -1.553062 -1.081797 -0.432087
v -0.594217 1.612780 1.961071
v -0.338416 2.565057 0.379757
v -1.281056 1.729425 -2.431088
v 0.904012 -0.642403 -2.257326
v 1.107745 1.871558 -1.534305
v 2.783567 0.871558 -1.534305
v 3.316916 0.005184 0.352324
v 2.420205 2.445145 0.304868
v 1.966750 0.871558 1.379756
v 2.388940 -0.322649 3.476188
v 1.097604 2.240317 1.379756
v 1.319205 2.544414 0.304868
v 3.543570 -1.276004 0.243000
v 1.099547 0.871558 3.352471
v 2.642573 0.871558 0.379757
v 0.704127 1.361233 -3.420100
v -2.636450 2.594284 -0.615545
v -0.695545 -0.786173 -0.045393
v 0.782011 -1.178901 -1.262877
v 1.639528 -0.883276 0.045245
vt 0.466737 0.500367
vt 0.418722 0.625778
vt 0.389203 0.410770
vt 0.298411 0.536847
vt 0.173085 0.481584
vt 0.297377 0.406097
vt 0.912394 0.603188
vt 0.772698 0.892267
vt 0.797141 0.637596
vt 0.709301 0.608589
vt 0.546236 0.724319
vt 0.596836 0.588338
vt 0.895751 0.388131
vt 0.815933 0.524878
vt 0.768914 0.540529
vt 0.372037 0.903026
vt 0.639100 0.840652
vt 0.997404 0.852287
vt 0.180831 0.725512
vt 0.138692 0.852287
vt 0.037039 0.388131
vt 0.006414 0.224710
vt 0.180724 0.084955
vt 0.247001 0.199572
vt 0.530509 0.185840
vt 0.357055 0.245731
vt 0.126338 0.461378
vt 0.696689 0.452433
vt 0.905593 0.493033
vt 0.053682 0.603188
vt 0.046881 0.493033
vt 0.568120 0.170099
vt 0.484502 0.663321
vt 0.865126 0.224710
vn -0.0773 0.8765 -0.4752
vn 0.4848 0.8125 -0.3236
vn 0.7954 0.2800 0.5375
vn -0.2490 0.6958 0.6737
vn 0.8156 0.5650 0.1247
vn 0.2039 0.9302 0.3052
vn 0.0785 0.8709 0.4851
vn 0.0895 0.9930 -0.0773
vn 0.3458 0.8677 -0.3572
vn -0.2240 -0.9087 0.3522
vn -0.5280 -0.3183 -0.7874
vn 0.4717 -0.5967 -0.6492
vn -0.2172 -0.1344 0.9668
vn 0.8604 0.4975 0.1101
vn 0.8836 0.2615 0.3884
vn 0.6941 0.5247 0.4929
vn 0.7788 0.6005 0.1813
vn 0.9964 -0.0421 0.0734
vn 0.3958 -0.0535 -0.9168
vn -0.5900 -0.4485 -0.6714
vn -0.0748 0.8761 -0.4764
vn -0.3272 -0.5264 -0.7848
vn -0.7887 -0.3700 0.4909
vn -0.3921 0.7123 0.5821
vn -0.0825 0.9722 0.2189
vn 0.3061 0.5129 -0.8020
vn 0.7178 0.1340 0.6832
vn 0.1362 0.8140 0.5647
vn 0.7939 0.0891 0.6015
vn 0.0138 0.9995 0.0293
vn 0.3792 0.8669 0.3234
vn -0.0770 0.9392 -0.3347
vn 0.0223 0.9739 0.2258
vn -0.0861 -0.9801 0.1789
vn 0.0289 -0.8812 -0.4719
vn 0.9775 0.1613 0.1358
vn -0.5931 0.1348 0.7938
vn 0.6377 0.7175 0.2803
vn 0.4299 0.7420 0.5144
vn 0.7157 0.5038 0.4837
vn 0.6491 0.7592 0.0478
vn 0.9253 0.1474 0.3494
vn 0.5762 -0.3665 -0.7305
vn -0.4476 -0.5763 -0.6838
vn 0.3752 0.8714 -0.3161
vn -0.8288 -0.2688 -0.4907
vn -0.7899 -0.0366 0.6121
vn -0.0027 0.9994 0.0357
vn 0.1154 -0.8959 0.4290
vn -0.0499 -0.9666 0.2512
vn -0.0456 -0.9927 0.1118
usemtl Material.001
s off
f 86/69/102 64/70/102 72/71/102
f 74/72/103 75/73/103 85/74/103
f 84/75/104 66/76/104 78/77/104
f 83/78/105 62/79/105 70/80/105
f 82/81/106 65/82/106 79/83/106
f 81/84/107 62/79/107 80/85/107
f 81/84/108 66/76/108 77/86/108
f 68/87/109 81/84/109 77/88/109
f 64/70/110 81/84/110 74/72/110
f 82/89/111 89/90/111 88/91/111
f 73/92/112 69/93/112 63/94/112
f 67/95/113 82/89/113 73/92/113
f 83/78/114 61/96/114 79/83/114
f 78/77/115 79/83/115 65/82/115
f 66/76/116 83/78/116 78/77/116
f 84/75/117 65/82/117 76/97/117
f 67/95/118 84/98/118 76/99/118
f 68/87/119 84/98/119 75/73/119
f 73/92/120 75/73/120 67/95/120
f 63/94/121 85/74/121 73/92/121
f 64/70/122 85/74/122 72/71/122
f 69/93/123 72/71/123 63/94/123
f 61/96/124 86/69/124 69/93/124 87/100/124
f 62/79/125 86/69/125 70/80/125
f 86/69/126 71/101/126 64/70/126
f 74/72/127 68/87/127 75/73/127
f 84/75/128 77/86/128 66/76/128
f 83/78/129 80/85/129 62/79/129
f 82/81/130 76/97/130 65/82/130
f 81/84/131 71/101/131 62/79/131
f 81/84/132 80/85/132 66/76/132
f 68/87/133 74/72/133 81/84/133
f 64/70/134 71/101/134 81/84/134
f 82/81/135 79/83/135 61/96/135 89/102/135
f 73/92/136 82/81/136 88/91/136 69/93/136
f 67/95/137 76/99/137 82/89/137
f 83/78/138 70/80/138 61/96/138
f 78/77/139 83/78/139 79/83/139
f 66/76/140 80/85/140 83/78/140
f 84/75/141 78/77/141 65/82/141
f 67/95/142 75/73/142 84/98/142
f 68/87/143 77/88/143 84/98/143
f 73/92/144 85/74/144 75/73/144
f 63/94/145 72/71/145 85/74/145
f 64/70/146 74/72/146 85/74/146
f 69/93/147 86/69/147 72/71/147
f 61/96/148 70/80/148 86/69/148
f 62/79/149 71/101/149 86/69/149
f 88/91/150 87/100/150 69/93/150
f 88/91/151 89/102/151 87/100/151
f 89/102/152 61/96/152 87/100/152
o Cube.003_Cube.004
v 4.068026 0.966186 -1.442091
v 1.606859 -0.924886 -2.227010
v 3.721231 0.696369 -4.069243
v 1.927359 -0.929504 -3.718179
v 2.317164 2.137995 -2.384641
v 0.901465 0.746796 -2.353169
v 2.091354 2.184103 -4.640906
v 0.483253 1.290681 -3.970033
v 4.068026 0.966186 -3.069243
v 2.832988 -0.555413 -1.487929
v 1.782767 -1.198470 -3.069243
v 3.116526 -0.154897 -4.287227
v 2.999671 1.623785 -4.877058
v 1.528656 0.257492 -4.069243
v 1.288845 2.194209 -4.069243
v 2.387635 2.192823 -3.096676
v 0.621399 0.946603 -3.069243
v 1.703845 1.660813 -2.069243
v 3.107166 1.485624 -1.442091
v 1.157258 0.134327 -2.069243
v 1.219137 0.016676 -3.069243
v 3.346465 1.893602 -3.877058
v 2.317911 0.871558 -0.894750
v 1.288845 2.194209 -3.069243
v 2.358660 0.586495 -4.701546
v 2.891128 -1.396226 -2.895909
vt 0.302651 0.505719
vt 0.266449 0.750321
vt 0.177945 0.492252
vt 0.978317 0.942643
vt 0.771764 0.668473
vt 0.943646 0.645492
vt 0.700125 0.596169
vt 0.547817 0.770720
vt 0.607245 0.441444
vt 0.505394 0.315537
vt 0.386606 0.663176
vt 0.394202 0.358787
vt 0.858906 0.242063
vt 0.667996 0.279486
vt 0.544958 0.104647
vt 0.406453 0.958374
vt 0.477216 0.708275
vt 0.622344 0.922826
vt 0.747637 0.926141
vt 0.135036 0.942643
vt 0.015625 0.242063
vt 0.436244 0.005433
vt 0.157925 0.030068
vt 0.046216 0.450096
vt 0.131553 0.278401
vt 0.828191 0.556281
vt 0.889498 0.450096
vt 0.739797 0.325070
vt 0.100365 0.645492
vt 0.322034 0.718283
vn 0.1820 -0.7482 -0.6380
vn -0.5860 -0.0726 -0.8070
vn -0.7094 0.4558 0.5375
vn -0.3503 -0.4645 0.8133
vn 0.4798 0.8564 0.1906
vn -0.9210 -0.3893 -0.0112
vn -0.8282 -0.5323 0.1754
vn -0.8387 -0.5391 -0.0773
vn -0.8487 -0.3906 -0.3567
vn 0.7893 0.6141 0.0000
vn 0.8601 0.3315 -0.3877
vn 0.4167 0.8309 -0.3687
vn 0.2440 0.4514 0.8583
vn -0.2102 0.7126 0.6694
vn -0.6745 0.3993 0.6210
vn 0.0032 0.9970 0.0771
vn 0.0011 1.0000 -0.0059
vn -0.7464 0.6655 0.0000
vn -0.5003 -0.5189 -0.6932
vn 0.4128 -0.3941 -0.8212
vn -0.0581 -0.5316 -0.8450
vn 0.8238 -0.5500 -0.1373
vn 0.8951 -0.4459 0.0000
vn -0.0491 -0.8584 0.5106
vn -0.1000 -0.9111 -0.3999
vn -0.1075 -0.0133 -0.9941
vn -0.7960 0.4258 0.4302
vn -0.5494 -0.3464 0.7604
vn 0.3752 0.9206 0.1080
vn -0.9059 -0.4202 -0.0527
vn -0.9209 -0.3897 -0.0111
vn -0.6721 -0.6452 -0.3634
vn -0.8490 -0.3938 -0.3524
vn 0.4668 0.8636 0.1906
vn 0.2566 0.9650 -0.0547
vn 0.3006 -0.2715 0.9143
vn -0.1767 0.7717 0.6110
vn -0.7181 0.0225 0.6955
vn -0.3212 0.7737 0.5460
vn 0.0126 0.9999 0.0000
vn -0.8409 0.4499 0.3008
vn -0.3997 0.0927 -0.9119
vn 0.4246 -0.0704 -0.9027
vn -0.4553 -0.3897 -0.8005
vn 0.8568 -0.4459 -0.2590
vn 0.7121 -0.5895 0.3814
vn -0.2091 -0.9420 0.2623
usemtl Material.004
s off
f 115/103/153 93/104/153 101/105/153
f 103/106/154 104/107/154 114/108/154
f 113/109/155 95/110/155 107/111/155
f 112/112/156 91/113/156 99/114/156
f 111/115/157 94/116/157 108/117/157
f 110/118/158 91/113/158 109/119/158
f 110/118/159 95/110/159 106/120/159
f 97/121/160 110/118/160 106/120/160
f 93/104/161 110/118/161 103/122/161
f 111/123/162 90/124/162 98/125/162
f 102/126/163 98/125/163 92/127/163
f 96/128/164 111/115/164 102/129/164
f 112/112/165 90/124/165 108/117/165
f 107/111/166 108/117/166 94/116/166
f 95/110/167 112/112/167 107/111/167
f 113/109/168 94/116/168 105/130/168
f 96/128/169 113/109/169 105/130/169
f 97/121/170 113/109/170 104/107/170
f 102/129/171 104/107/171 96/128/171
f 92/127/172 114/131/172 102/126/172
f 93/104/173 114/131/173 101/105/173
f 98/125/174 101/105/174 92/127/174
f 90/124/175 115/103/175 98/125/175
f 91/113/176 115/103/176 99/114/176
f 115/103/177 100/132/177 93/104/177
f 103/106/178 97/121/178 104/107/178
f 113/109/179 106/120/179 95/110/179
f 112/112/180 109/119/180 91/113/180
f 111/115/181 105/130/181 94/116/181
f 110/118/182 100/132/182 91/113/182
f 110/118/183 109/119/183 95/110/183
f 97/121/184 103/106/184 110/118/184
f 93/104/185 100/132/185 110/118/185
f 111/115/186 108/117/186 90/124/186
f 102/126/163 111/123/163 98/125/163
f 96/128/187 105/130/187 111/115/187
f 112/112/188 99/114/188 90/124/188
f 107/111/189 112/112/189 108/117/189
f 95/110/190 109/119/190 112/112/190
f 113/109/191 107/111/191 94/116/191
f 96/128/192 104/107/192 113/109/192
f 97/121/193 106/120/193 113/109/193
f 102/129/194 114/108/194 104/107/194
f 92/127/195 101/105/195 114/131/195
f 93/104/196 103/122/196 114/131/196
f 98/125/197 115/103/197 101/105/197
f 90/124/198 99/114/198 115/103/198
f 91/113/199 100/132/199 115/103/199
o Cube.004_Cube.005
v -4.049113 0.670799 -4.115654
v -3.090758 -0.612118 -1.367578
v -2.669603 2.581178 -1.771377
v -3.114709 0.784134 0.298596
v -1.851548 0.673378 -3.960352
v -1.635177 -0.606110 -2.458112
v -0.604345 2.143151 -2.765320
v 0.110884 0.181930 -1.868673
v -4.454840 2.336613 -2.556619
v -4.134869 -0.395465 -2.140482
v -2.963672 0.042227 -0.758619
v -3.109627 2.262422 0.176663
v -1.428113 2.784829 -2.442179
v -1.526284 0.920840 -1.347138
v -0.310559 1.206150 -2.846802
v -1.534722 1.240353 -3.655184
v -0.596813 -0.447757 -2.095731
v -1.832288 -0.067311 -3.567480
v -2.587615 0.182744 -4.775344
v -2.278847 -0.779558 -2.181045
v -1.516221 -0.265010 -1.509772
v -1.383570 2.171093 -3.909597
v -3.241335 -0.678943 -3.708642
v -0.782652 0.493110 -3.365167
v -1.482859 2.104066 -0.976090
v -4.937869 0.699896 0.488609
v -4.295889 1.553074 0.481561
v -5.205475 1.652793 -0.755397
v -3.752057 2.291543 -1.206491
v -4.554295 1.583596 -3.170697
v -5.266053 2.109891 -1.417471
v -4.493491 0.685347 -1.813522
v -5.205249 1.211643 -0.060296
v -5.451738 1.548766 -1.302497
vt 0.431710 0.426053
vt 0.389043 0.568129
vt 0.324164 0.449626
vt 0.388148 0.417823
vt 0.222289 0.807465
vt 0.041873 0.665226
vt 0.220186 0.579472
vt 0.872970 0.653920
vt 0.728193 0.793467
vt 0.788051 0.574493
vt 0.698146 0.444774
vt 0.540971 0.632390
vt 0.574658 0.406074
vt 0.929728 0.400730
vt 0.832953 0.463898
vt 0.782157 0.395543
vt 0.593483 0.976081
vt 0.648358 0.733150
vt 0.834697 0.901786
vt 0.952472 0.866545
vt 0.718484 0.211245
vt 0.617915 0.042344
vt 0.369332 0.021771
vt 0.126972 0.423286
vt 0.218581 0.291938
vt 0.082771 0.550866
vt 0.026635 0.400730
vt 0.887142 0.468743
vt 0.985864 0.550866
vt 0.944966 0.665226
vt 0.330369 0.247708
vt 0.448995 0.217243
vt 0.428106 0.348268
vt 0.423417 0.266275
vt 0.415885 0.176646
vt 0.457726 0.633544
vt 0.049379 0.866545
vt 0.506840 0.262196
vn 0.1596 0.0103 0.9871
vn 0.7784 -0.2137 0.5903
vn 0.4865 -0.7488 -0.4501
vn -0.2332 -0.9715 0.0427
vn 0.7867 -0.2264 -0.5743
vn 0.2315 -0.8811 0.4124
vn 0.0266 -0.9417 0.3354
vn 0.3279 -0.6242 0.7091
vn 0.7204 -0.0882 0.6880
vn -0.2852 0.6170 -0.7335
vn -0.1474 0.9887 0.0273
vn 0.5004 0.8041 -0.3211
vn -0.4895 -0.5069 -0.7095
vn 0.7898 -0.2712 -0.5501
vn 0.3923 -0.7981 -0.4573
vn 0.5014 0.1758 -0.8472
vn 0.5436 0.2343 -0.8060
vn 0.8314 -0.1647 -0.5307
vn 0.3942 0.0438 0.9180
vn 0.0800 0.9029 0.4223
vn 0.5812 0.0649 0.8112
vn -0.1961 0.9728 0.1229
vn -0.8589 0.4086 0.3089
vn -0.3748 -0.8908 0.2567
vn 0.0979 -0.8080 0.5810
vn 0.4834 0.7004 0.5251
vn 0.3199 -0.7382 -0.5939
vn -0.1645 -0.9856 0.0387
vn 0.8684 -0.2570 -0.4241
vn 0.2142 -0.6874 0.6940
vn 0.3590 -0.8917 0.2757
vn 0.2474 -0.1296 0.9602
vn 0.1317 -0.8025 0.5820
vn -0.2142 0.4961 -0.8415
vn -0.1208 0.9145 -0.3861
vn 0.7909 -0.2775 -0.5454
vn -0.7613 -0.5561 -0.3333
vn 0.3967 -0.8176 -0.4173
vn 0.1833 -0.9666 -0.1792
vn 0.3847 -0.4247 -0.8195
vn 0.5328 0.2377 -0.8122
vn 0.6577 -0.5559 -0.5083
vn 0.8175 0.5101 0.2674
vn 0.2407 0.9477 0.2094
vn 0.7091 -0.2345 0.6649
vn -0.1541 0.9433 0.2939
vn -0.9485 -0.2598 -0.1814
vn 0.2100 -0.6876 0.6950
vn -0.4554 0.8602 0.2296
vn -0.3053 0.9046 0.2974
vn -0.5648 0.5920 0.5749
vn -0.8281 0.3469 -0.4403
vn -0.8402 -0.4688 -0.2726
vn -0.7413 -0.6635 -0.1018
usemtl Material.005
s off
f 141/133/200 119/134/200 127/135/200 142/136/200
f 129/137/201 130/138/201 140/139/201
f 139/140/202 121/141/202 133/142/202
f 138/143/203 117/144/203 125/145/203
f 137/146/204 120/147/204 134/148/204
f 136/149/205 117/144/205 135/150/205
f 136/149/206 121/141/206 132/151/206
f 123/152/207 136/149/207 132/151/207
f 119/134/208 136/149/208 129/137/208
f 137/146/209 116/153/209 145/154/209 124/155/209
f 128/156/210 124/155/210 118/157/210
f 122/158/211 137/159/211 128/156/211
f 138/143/212 116/153/212 134/148/212
f 133/142/213 134/148/213 120/147/213
f 121/141/214 138/143/214 133/142/214
f 139/140/215 120/147/215 131/160/215
f 122/161/216 139/140/216 131/160/216
f 123/152/217 139/140/217 130/162/217
f 128/156/218 130/138/218 122/158/218
f 118/157/219 140/139/219 128/156/219
f 119/134/220 140/139/220 127/135/220
f 124/155/221 144/163/221 127/135/221 118/157/221
f 149/164/222 148/165/222 143/166/222 146/167/222
f 117/144/223 141/133/223 125/145/223
f 141/133/224 126/168/224 119/134/224
f 129/137/225 123/169/225 130/138/225
f 139/140/226 132/151/226 121/141/226
f 138/143/227 135/150/227 117/144/227
f 137/146/228 131/160/228 120/147/228
f 136/149/229 126/168/229 117/144/229
f 136/149/230 135/150/230 121/141/230
f 123/152/231 129/137/231 136/149/231
f 119/134/232 126/168/232 136/149/232
f 137/146/233 134/148/233 116/153/233
f 128/156/234 137/159/234 124/155/234
f 122/161/235 131/160/235 137/146/235
f 138/143/236 125/145/236 116/153/236
f 133/142/237 138/143/237 134/148/237
f 121/141/238 135/150/238 138/143/238
f 139/140/239 133/142/239 120/147/239
f 122/161/240 130/162/240 139/140/240
f 123/152/241 132/151/241 139/140/241
f 128/156/242 140/139/242 130/138/242
f 118/157/243 127/135/243 140/139/243
f 119/134/244 129/137/244 140/139/244
f 124/155/245 146/167/245 143/166/245 144/163/245
f 116/153/246 125/145/246 141/133/246 147/170/246
f 117/144/247 126/168/247 141/133/247
f 144/163/248 142/136/248 127/135/248
f 144/163/249 143/166/249 142/136/249
f 143/166/250 148/165/250 141/133/250 142/136/250
f 145/154/251 149/164/251 146/167/251 124/155/251
f 116/153/252 147/170/252 149/164/252 145/154/252
f 147/170/253 141/133/253 148/165/253 149/164/253
