# Blender v2.93.5 OBJ File: ''
# www.blender.org
mtllib cloud.mtl
o Cube.002
v 2.467783 2.298331 -2.064393
v 0.467783 2.298331 -2.064393
v 0.467783 2.298331 -0.064393
v 2.467783 2.298331 -0.064393
v 2.467783 0.298331 -0.064393
v 0.467783 0.298331 -0.064393
v 0.467783 0.298331 -2.064393
v 2.467783 0.298331 -2.064393
v 1.000000 1.712191 -1.000000
v -1.000000 1.712191 -1.000000
v -1.000000 1.712191 1.000000
v 1.000000 1.712191 1.000000
v 1.000000 -0.287809 1.000000
v -1.000000 -0.287809 1.000000
v -1.000000 -0.287809 -1.000000
v 1.000000 -0.287809 -1.000000
v 3.279874 1.623541 -1.582285
v 1.279874 1.623541 -1.582285
v 1.279874 1.623541 0.417715
v 3.279874 1.623541 0.417715
v 3.279874 -0.376459 0.417715
v 1.279874 -0.376459 0.417715
v 1.279874 -0.376459 -1.582285
v 3.279874 -0.376459 -1.582285
v 1.223432 1.135208 -2.790195
v -0.776568 1.135208 -2.790195
v -0.776568 1.135208 -0.790195
v 1.223432 1.135208 -0.790195
v 1.223432 -0.864792 -0.790195
v -0.776568 -0.864792 -0.790195
v -0.776568 -0.864792 -2.790195
v 1.223432 -0.864792 -2.790195
v 0.061034 1.950497 -1.793132
v -1.938966 1.950497 -1.793132
v -1.938966 1.950497 0.206868
v 0.061034 1.950497 0.206868
v 0.061034 -0.049503 0.206868
v -1.938966 -0.049503 0.206868
v -1.938966 -0.049503 -1.793132
v 0.061034 -0.049503 -1.793132
v 3.437438 1.613038 -3.578616
v 1.437438 1.613038 -3.578616
v 1.437438 1.613037 -1.578616
v 3.437438 1.613037 -1.578616
v 3.437438 -0.386963 -1.578616
v 1.437438 -0.386963 -1.578616
v 1.437438 -0.386962 -3.578616
v 3.437438 -0.386962 -3.578616
v 2.498472 1.851344 -4.371747
v 0.498472 1.851344 -4.371747
v 0.498472 1.851343 -2.371747
v 2.498472 1.851343 -2.371747
v 2.498472 -0.148657 -2.371747
v 0.498472 -0.148657 -2.371747
v 0.498472 -0.148656 -4.371747
v 2.498472 -0.148656 -4.371747
v 1.755860 1.594369 -3.792094
v -0.244140 1.594369 -3.792094
v -0.244140 1.594368 -1.792094
v 1.755860 1.594368 -1.792094
v 1.755860 -0.405632 -1.792094
v -0.244140 -0.405632 -1.792094
v -0.244140 -0.405631 -3.792094
v 1.755860 -0.405631 -3.792094
v -0.650889 1.246535 -3.520833
v -2.650888 1.246535 -3.520833
v -2.650888 1.246534 -1.520833
v -0.650889 1.246534 -1.520833
v -0.650889 -0.753466 -1.520833
v -2.650888 -0.753466 -1.520833
v -2.650888 -0.753465 -3.520833
v -0.650889 -0.753465 -3.520833
v 0.858834 1.395861 -4.623089
v -1.141166 1.395861 -4.623089
v -1.141166 1.395860 -2.623089
v 0.858834 1.395860 -2.623089
v 0.858834 -0.604140 -2.623089
v -1.141166 -0.604140 -2.623089
v -1.141166 -0.604139 -4.623089
v 0.858834 -0.604139 -4.623089
v -0.760039 1.325238 -1.228218
v -2.760039 1.325238 -1.228218
v -2.760039 1.325238 0.771782
v -0.760039 1.325238 0.771782
v -0.760039 -0.674762 0.771782
v -2.760039 -0.674762 0.771782
v -2.760039 -0.674762 -1.228218
v -0.760039 -0.674762 -1.228218
vt 0.000100 0.000100
vt 0.999900 0.000100
vt 0.999900 0.999900
vt 0.000100 0.999900
vt 0.000100 0.999900
vt 0.000100 0.000100
vt 0.999900 0.000100
vt 0.999900 0.999900
vt 0.375000 0.000000
vt 0.625000 0.000000
vt 0.625000 0.250000
vt 0.375000 0.250000
vt 0.999900 0.999900
vt 0.000100 0.999900
vt 0.000100 0.000100
vt 0.999900 0.000100
vt 0.375000 0.500000
vt 0.625000 0.500000
vt 0.625000 0.750000
vt 0.375000 0.750000
vt 0.000100 0.000100
vt 0.999900 0.000100
vt 0.999900 0.999900
vt 0.000100 0.999900
vt 0.000100 0.999900
vt 0.000100 0.000100
vt 0.999900 0.000100
vt 0.999900 0.999900
vt 0.375000 0.000000
vt 0.625000 0.000000
vt 0.625000 0.250000
vt 0.375000 0.250000
vt 0.999900 0.000100
vt 0.999900 0.999900
vt 0.000100 0.000100
vt 0.999900 0.000100
vt 0.999900 0.999900
vt 0.000100 0.000100
vt 0.625000 0.500000
vt 0.375000 0.500000
vt 0.000100 0.000100
vt 0.999900 0.000100
vt 0.999900 0.999900
vt 0.000100 0.999900
vt -0.003248 -0.004945
vt 0.997047 -0.006496
vt 0.989296 0.993799
vt 0.006053 0.995349
vt 0.999900 0.000100
vt 0.000100 0.999900
vt 0.000100 0.000100
vt 0.999900 0.000100
vt 0.999900 0.999900
vt 0.000100 0.999900
vt 0.000100 0.000100
vt 0.999900 0.000100
vt 0.999900 0.999900
vt 0.000100 0.000100
vt 0.375000 0.250000
vt 0.625000 0.250000
vt 0.625000 0.500000
vt 0.375000 0.500000
vt 0.000100 0.000100
vt 0.999900 0.000100
vt 0.999900 0.999900
vt 0.000100 0.999900
vt 0.999900 0.000100
vt 0.999900 0.999900
vt 0.000100 0.999900
vt 0.000100 0.000100
vt 0.375000 0.000000
vt 0.625000 0.000000
vt 0.625000 0.250000
vt 0.375000 0.250000
vt 0.999900 0.999900
vt 0.000100 0.999900
vt 0.000100 0.000100
vt 0.999900 0.000100
vt 0.999900 0.999900
vt 0.000100 0.999900
vt 0.000100 0.000100
vt 0.625000 0.500000
vt 0.375000 0.500000
vt 0.000100 0.000100
vt 0.999900 0.000100
vt 0.999900 0.999900
vt 0.000100 0.999900
vt 0.375000 0.750000
vt 0.625000 0.750000
vt 0.625000 1.000000
vt 0.375000 1.000000
vt 0.375000 0.000000
vt 0.625000 0.000000
vt 0.625000 0.250000
vt 0.375000 0.250000
vt 0.125000 0.500000
vt 0.375000 0.500000
vt 0.125000 0.750000
vt 0.625000 0.500000
vt 0.000100 0.000100
vt 0.999900 0.000100
vt 0.999900 0.999900
vt 0.000100 0.999900
vt 0.375000 0.750000
vt 0.625000 0.750000
vt 0.625000 1.000000
vt 0.375000 1.000000
vt 0.375000 0.000000
vt 0.625000 0.000000
vt 0.625000 0.250000
vt 0.375000 0.250000
vt 0.999900 0.000100
vt 0.999900 0.999900
vt 0.000100 0.999900
vt 0.000100 0.000100
vt 0.999900 0.000100
vt 0.999900 0.999900
vt 0.000100 0.000100
vt 0.625000 0.500000
vt 0.375000 0.500000
vt 0.999900 0.000100
vt 0.999900 0.999900
vt 0.000100 0.999900
vt 0.000100 0.000100
vt 0.375000 0.750000
vt 0.625000 0.750000
vt 0.625000 1.000000
vt 0.375000 1.000000
vt 0.375000 0.000000
vt 0.625000 0.000000
vt 0.625000 0.250000
vt 0.375000 0.250000
vt 0.999900 0.999900
vt 0.000100 0.999900
vt 0.000100 0.000100
vt 0.999900 0.000100
vt 0.999900 0.999900
vt 0.000100 0.999900
vt 0.999900 0.000100
vt 0.999900 0.000100
vt 0.000100 0.000100
vt 0.000100 0.999900
vt 0.000100 0.000100
vt 0.999900 0.000100
vt 0.999900 0.999900
vt 0.375000 0.750000
vt 0.625000 0.750000
vt 0.625000 1.000000
vt 0.375000 1.000000
vt 0.375000 0.000000
vt 0.625000 0.000000
vt 0.625000 0.250000
vt 0.375000 0.250000
vt 0.000100 0.000100
vt 0.999900 0.000100
vt 0.999900 0.999900
vt 0.000100 0.999900
vt 0.000100 0.000100
vt 0.999900 0.000100
vt 0.000100 0.999900
vt 0.625000 0.500000
vt 0.375000 0.500000
vt 0.999900 0.999900
vt 0.000100 0.999900
vt 0.000100 0.000100
vt 0.999900 0.000100
vt 0.999900 0.999899
vt 0.000100 0.999899
vt 0.999900 0.000100
vt 0.750000 0.500130
vt 0.750000 0.999870
vt 0.375195 0.999870
vt 0.375195 0.500130
vt 0.999900 0.000100
vt 0.999900 0.999900
vt 0.000100 0.999900
vt 0.000100 0.000100
vt 0.375000 0.500000
vt 0.625000 0.500000
vt 0.625000 0.750000
vt 0.375000 0.750000
vt 0.999900 0.999899
vt 0.000100 0.000100
vt 0.999900 0.000100
vt 0.000100 0.000100
vt 0.999900 0.000100
vt 0.999900 0.999900
vt 0.000100 0.999900
vt 0.000100 0.999900
vt 0.000100 0.000100
vt 0.999900 0.000100
vt 0.999900 0.999900
vt 0.999900 0.000100
vt 0.000100 0.999900
vt 0.000100 0.000100
vt 0.999900 0.000100
vt 0.999900 0.999900
vt 0.000100 0.999900
vt 0.999900 0.999900
vt 0.000100 0.000100
vt 0.999900 0.000100
vt 0.999900 0.999900
vt 0.000100 0.999900
vt 0.000100 0.000100
vt 0.000100 0.000100
vt 0.999900 0.000100
vt 0.999900 0.999900
vt 0.000100 0.999900
vt 0.000100 0.999900
vt 0.000100 0.000100
vt 0.999900 0.000100
vt 0.999900 0.999900
vt 0.374935 0.000130
vt 0.374935 0.499870
vt 0.000130 0.499870
vt 0.000130 0.000130
vt -0.002116 -0.011565
vt 0.998179 0.000837
vt 0.999729 0.996481
vt 0.000984 0.993381
vt 0.375000 0.500000
vt 0.625000 0.500000
vt 0.995497 0.001255
vt 0.990428 0.991831
vt 0.999900 0.000100
vt 0.999900 0.999900
vt 0.000100 0.999900
vt 0.000100 0.000100
vn 0.0000 1.0000 0.0000
vn 0.0000 -0.0000 1.0000
vn -1.0000 0.0000 0.0000
vn 0.0000 -1.0000 -0.0000
vn 1.0000 -0.0000 0.0000
vn 0.0000 0.0000 -1.0000
usemtl Material.001
s 1
f 1/1/1 2/2/1 3/3/1 4/4/1
f 5/5/2 4/6/2 3/7/2 6/8/2
f 6/9/3 3/10/3 2/11/3 7/12/3
f 7/13/4 8/14/4 5/15/4 6/16/4
f 8/17/5 1/18/5 4/19/5 5/20/5
f 7/12/6 2/11/6 1/18/6 8/17/6
f 9/21/1 10/22/1 11/23/1 12/24/1
f 13/25/2 12/26/2 11/27/2 14/28/2
f 14/29/3 11/30/3 10/31/3 15/32/3
f 15/33/4 16/34/4 13/25/4 14/35/4
f 16/36/5 9/37/5 12/24/5 13/38/5
f 15/32/6 10/31/6 9/39/6 16/40/6
f 17/41/1 18/42/1 19/43/1 20/44/1
f 21/45/2 20/46/2 19/47/2 22/48/2
f 22/49/3 19/43/3 18/50/3 23/51/3
f 23/52/4 24/53/4 21/54/4 22/55/4
f 24/56/5 17/57/5 20/44/5 21/58/5
f 23/59/6 18/60/6 17/61/6 24/62/6
f 25/63/1 26/64/1 27/65/1 28/66/1
f 29/67/2 28/68/2 27/69/2 30/70/2
f 30/71/3 27/72/3 26/73/3 31/74/3
f 31/75/4 32/76/4 29/77/4 30/78/4
f 32/79/5 25/80/5 28/81/5 29/67/5
f 31/74/6 26/73/6 25/82/6 32/83/6
f 33/84/1 34/85/1 35/86/1 36/87/1
f 37/88/2 36/89/2 35/90/2 38/91/2
f 38/92/3 35/93/3 34/94/3 39/95/3
f 39/96/4 40/97/4 37/88/4 38/98/4
f 40/97/5 33/99/5 36/89/5 37/88/5
f 39/95/6 34/94/6 33/99/6 40/97/6
f 41/100/1 42/101/1 43/102/1 44/103/1
f 45/104/2 44/105/2 43/106/2 46/107/2
f 46/108/3 43/109/3 42/110/3 47/111/3
f 47/112/4 48/113/4 45/114/4 46/115/4
f 48/116/5 41/117/5 44/103/5 45/118/5
f 47/111/6 42/110/6 41/119/6 48/120/6
f 49/121/1 50/122/1 51/123/1 52/124/1
f 53/125/2 52/126/2 51/127/2 54/128/2
f 54/129/3 51/130/3 50/131/3 55/132/3
f 55/133/4 56/134/4 53/135/4 54/136/4
f 56/137/5 49/138/5 52/124/5 53/139/5
f 55/140/6 50/122/6 49/138/6 56/141/6
f 57/142/1 58/143/1 59/144/1 60/145/1
f 61/146/2 60/147/2 59/148/2 62/149/2
f 62/150/3 59/151/3 58/152/3 63/153/3
f 63/154/4 64/155/4 61/156/4 62/157/4
f 64/158/5 57/159/5 60/145/5 61/160/5
f 63/153/6 58/152/6 57/161/6 64/162/6
f 65/163/1 66/164/1 67/165/1 68/166/1
f 69/167/2 68/168/2 67/165/2 70/169/2
f 70/170/3 67/171/3 66/172/3 71/173/3
f 71/174/4 72/175/4 69/176/4 70/177/4
f 72/178/5 65/179/5 68/180/5 69/181/5
f 71/182/6 66/164/6 65/183/6 72/184/6
f 73/185/1 74/186/1 75/187/1 76/188/1
f 77/189/2 76/190/2 75/191/2 78/192/2
f 78/193/3 75/187/3 74/194/3 79/195/3
f 79/195/4 80/196/4 77/197/4 78/198/4
f 80/196/5 73/199/5 76/188/5 77/200/5
f 79/201/6 74/202/6 73/203/6 80/204/6
f 81/205/1 82/206/1 83/207/1 84/208/1
f 85/209/2 84/210/2 83/211/2 86/212/2
f 86/213/3 83/214/3 82/215/3 87/216/3
f 87/217/4 88/218/4 85/219/4 86/220/4
f 88/221/5 81/222/5 84/223/5 85/224/5
f 87/225/6 82/226/6 81/227/6 88/228/6
